<svg width="1294" height="647" viewBox="0 0 1294 647" fill="none" xmlns="http://www.w3.org/2000/svg">
<g clip-path="url(#clip0_213_1196)">
<g opacity="0.4">
<path d="M-152.618 0L647.825 0.381953L647.443 800.691L-153 800.309L-152.618 0ZM646.67 1.53616L-151.464 1.15531L-151.844 799.155L646.289 799.536L646.67 1.53616Z" fill="#0EACEF"/>
<path d="M647.231 31.0982L-152.057 30.7168L-152.058 31.8715L647.23 32.2529L647.231 31.0982Z" fill="#0EACEF"/>
<path d="M647.216 61.873L-152.072 61.4916L-152.073 62.6463L647.215 63.0277L647.216 61.873Z" fill="#0EACEF"/>
<path d="M647.203 92.5894L-152.086 92.208L-152.086 93.3627L647.202 93.7441L647.203 92.5894Z" fill="#0EACEF"/>
<path d="M647.185 123.306L-152.103 122.925L-152.103 124.08L647.185 124.461L647.185 123.306Z" fill="#0EACEF"/>
<path d="M647.17 154.081L-152.118 153.699L-152.118 154.854L647.17 155.236L647.17 154.081Z" fill="#0EACEF"/>
<path d="M647.157 184.797L-152.131 184.416L-152.132 185.571L647.156 185.952L647.157 184.797Z" fill="#0EACEF"/>
<path d="M647.142 215.514L-152.146 215.133L-152.147 216.288L647.141 216.669L647.142 215.514Z" fill="#0EACEF"/>
<path d="M647.129 246.288L-152.16 245.907L-152.16 247.062L647.128 247.443L647.129 246.288Z" fill="#0EACEF"/>
<path d="M647.113 277.005L-152.175 276.624L-152.175 277.779L647.113 278.16L647.113 277.005Z" fill="#0EACEF"/>
<path d="M647.098 307.722L-152.19 307.341L-152.191 308.495L647.098 308.877L647.098 307.722Z" fill="#0EACEF"/>
<path d="M647.083 338.497L-152.205 338.115L-152.206 339.27L647.082 339.652L647.083 338.497Z" fill="#0EACEF"/>
<path d="M647.068 369.213L-152.22 368.832L-152.221 369.987L647.067 370.368L647.068 369.213Z" fill="#0EACEF"/>
<path d="M647.055 399.93L-152.234 399.548L-152.234 400.703L647.054 401.084L647.055 399.93Z" fill="#0EACEF"/>
<path d="M647.039 430.705L-152.249 430.323L-152.249 431.478L647.039 431.859L647.039 430.705Z" fill="#0EACEF"/>
<path d="M647.024 461.421L-152.264 461.04L-152.265 462.194L647.024 462.576L647.024 461.421Z" fill="#0EACEF"/>
<path d="M647.011 492.138L-152.277 491.757L-152.278 492.911L647.01 493.293L647.011 492.138Z" fill="#0EACEF"/>
<path d="M646.996 522.912L-152.292 522.531L-152.293 523.686L646.995 524.067L646.996 522.912Z" fill="#0EACEF"/>
<path d="M646.98 553.629L-152.308 553.247L-152.308 554.402L646.98 554.784L646.98 553.629Z" fill="#0EACEF"/>
<path d="M646.967 584.404L-152.321 584.022L-152.322 585.177L646.967 585.558L646.967 584.404Z" fill="#0EACEF"/>
<path d="M646.952 615.12L-152.336 614.739L-152.337 615.893L646.951 616.275L646.952 615.12Z" fill="#0EACEF"/>
<path d="M646.937 645.837L-152.351 645.456L-152.352 646.61L646.936 646.992L646.937 645.837Z" fill="#0EACEF"/>
<path d="M646.922 676.611L-152.367 676.23L-152.367 677.385L646.921 677.766L646.922 676.611Z" fill="#0EACEF"/>
<path d="M646.905 707.328L-152.384 706.946L-152.384 708.101L646.904 708.482L646.905 707.328Z" fill="#0EACEF"/>
<path d="M646.891 738.045L-152.397 737.663L-152.397 738.818L646.891 739.2L646.891 738.045Z" fill="#0EACEF"/>
<path d="M646.876 768.819L-152.412 768.438L-152.413 769.592L646.875 769.974L646.876 768.819Z" fill="#0EACEF"/>
<path d="M-120.74 0.592456L-121.895 0.591904L-122.276 799.746L-121.121 799.747L-120.74 0.592456Z" fill="#0EACEF"/>
<path d="M-89.9607 0.607164L-91.1156 0.606613L-91.497 799.761L-90.3421 799.761L-89.9607 0.607164Z" fill="#0EACEF"/>
<path d="M-59.2365 0.621814L-60.3915 0.621262L-60.7729 799.776L-59.6179 799.776L-59.2365 0.621814Z" fill="#0EACEF"/>
<path d="M-28.5238 0.636463L-29.6787 0.635912L-30.0601 799.79L-28.9052 799.791L-28.5238 0.636463Z" fill="#0EACEF"/>
<path d="M2.25737 0.651231L1.10242 0.65068L0.720993 799.805L1.87596 799.805L2.25737 0.651231Z" fill="#0EACEF"/>
<path d="M32.9796 0.66588L31.8247 0.665329L31.4433 799.82L32.5982 799.82L32.9796 0.66588Z" fill="#0EACEF"/>
<path d="M63.7038 0.680411L62.5488 0.67986L62.1674 799.834L63.3224 799.835L63.7038 0.680411Z" fill="#0EACEF"/>
<path d="M94.4849 0.695179L93.3299 0.694628L92.9485 799.849L94.1035 799.849L94.4849 0.695179Z" fill="#0EACEF"/>
<path d="M125.205 0.709828L124.05 0.709277L123.669 799.864L124.824 799.864L125.205 0.709828Z" fill="#0EACEF"/>
<path d="M155.929 0.724477L154.774 0.723926L154.393 799.878L155.548 799.879L155.929 0.724477Z" fill="#0EACEF"/>
<path d="M186.709 0.739245L185.554 0.738694L185.172 799.893L186.327 799.893L186.709 0.739245Z" fill="#0EACEF"/>
<path d="M217.433 0.753835L216.278 0.753284L215.896 799.908L217.051 799.908L217.433 0.753835Z" fill="#0EACEF"/>
<path d="M248.147 0.768485L246.992 0.767934L246.611 799.922L247.766 799.923L248.147 0.768485Z" fill="#0EACEF"/>
<path d="M278.927 0.783253L277.772 0.782702L277.39 799.937L278.545 799.938L278.927 0.783253Z" fill="#0EACEF"/>
<path d="M309.653 0.797843L308.498 0.797292L308.116 799.952L309.271 799.952L309.653 0.797843Z" fill="#0EACEF"/>
<path d="M340.373 0.812492L339.218 0.811941L338.837 799.966L339.992 799.967L340.373 0.812492Z" fill="#0EACEF"/>
<path d="M371.152 0.827201L369.997 0.82665L369.616 799.981L370.771 799.982L371.152 0.827201Z" fill="#0EACEF"/>
<path d="M401.876 0.84185L400.721 0.841299L400.34 799.996L401.495 799.996L401.876 0.84185Z" fill="#0EACEF"/>
<path d="M432.6 0.856499L431.446 0.855948L431.064 800.01L432.219 800.011L432.6 0.856499Z" fill="#0EACEF"/>
<path d="M463.38 0.871267L462.225 0.870716L461.843 800.025L462.998 800.026L463.38 0.871267Z" fill="#0EACEF"/>
<path d="M494.094 0.885917L492.939 0.885366L492.558 800.04L493.713 800.04L494.094 0.885917Z" fill="#0EACEF"/>
<path d="M524.874 0.900507L523.719 0.899956L523.337 800.054L524.492 800.055L524.874 0.900507Z" fill="#0EACEF"/>
<path d="M555.6 0.915215L554.445 0.914664L554.063 800.069L555.218 800.069L555.6 0.915215Z" fill="#0EACEF"/>
<path d="M586.322 0.929865L585.167 0.929314L584.786 800.084L585.94 800.084L586.322 0.929865Z" fill="#0EACEF"/>
<path d="M617.103 0.944514L615.948 0.943963L615.567 800.098L616.721 800.099L617.103 0.944514Z" fill="#0EACEF"/>
<path d="M646.557 0.381417L1447 0.76337L1446.62 801.072L646.175 800.69L646.557 0.381417ZM1445.84 1.91758L647.711 1.53673L647.33 799.536L1445.46 799.917L1445.84 1.91758Z" fill="#0EACEF"/>
<path d="M1446.41 31.4795L647.117 31.0981L647.116 32.2529L1446.4 32.6343L1446.41 31.4795Z" fill="#0EACEF"/>
<path d="M1446.39 62.2544L647.102 61.873L647.101 63.0277L1446.39 63.4091L1446.39 62.2544Z" fill="#0EACEF"/>
<path d="M1446.38 92.9708L647.088 92.5894L647.088 93.7442L1446.38 94.1256L1446.38 92.9708Z" fill="#0EACEF"/>
<path d="M1446.36 123.688L647.073 123.306L647.073 124.461L1446.36 124.843L1446.36 123.688Z" fill="#0EACEF"/>
<path d="M1446.35 154.462L647.058 154.081L647.057 155.235L1446.35 155.617L1446.35 154.462Z" fill="#0EACEF"/>
<path d="M1446.33 185.179L647.045 184.797L647.044 185.952L1446.33 186.333L1446.33 185.179Z" fill="#0EACEF"/>
<path d="M1446.32 215.896L647.03 215.514L647.029 216.669L1446.32 217.05L1446.32 215.896Z" fill="#0EACEF"/>
<path d="M1446.3 246.67L647.016 246.288L647.016 247.443L1446.3 247.825L1446.3 246.67Z" fill="#0EACEF"/>
<path d="M1446.29 277.387L647.001 277.006L647.001 278.16L1446.29 278.542L1446.29 277.387Z" fill="#0EACEF"/>
<path d="M1446.27 308.103L646.984 307.722L646.984 308.877L1446.27 309.258L1446.27 308.103Z" fill="#0EACEF"/>
<path d="M1446.26 338.878L646.969 338.497L646.968 339.652L1446.26 340.033L1446.26 338.878Z" fill="#0EACEF"/>
<path d="M1446.24 369.595L646.954 369.213L646.953 370.368L1446.24 370.749L1446.24 369.595Z" fill="#0EACEF"/>
<path d="M1446.23 400.311L646.94 399.93L646.94 401.084L1446.23 401.466L1446.23 400.311Z" fill="#0EACEF"/>
<path d="M1446.21 431.086L646.925 430.705L646.925 431.859L1446.21 432.241L1446.21 431.086Z" fill="#0EACEF"/>
<path d="M1446.2 461.802L646.91 461.421L646.909 462.576L1446.2 462.957L1446.2 461.802Z" fill="#0EACEF"/>
<path d="M1446.18 492.519L646.897 492.138L646.896 493.293L1446.18 493.674L1446.18 492.519Z" fill="#0EACEF"/>
<path d="M1446.17 523.294L646.882 522.912L646.881 524.067L1446.17 524.448L1446.17 523.294Z" fill="#0EACEF"/>
<path d="M1446.15 554.01L646.865 553.629L646.864 554.783L1446.15 555.165L1446.15 554.01Z" fill="#0EACEF"/>
<path d="M1446.14 584.785L646.851 584.404L646.851 585.558L1446.14 585.94L1446.14 584.785Z" fill="#0EACEF"/>
<path d="M1446.12 615.501L646.836 615.12L646.835 616.275L1446.12 616.656L1446.12 615.501Z" fill="#0EACEF"/>
<path d="M1446.11 646.218L646.823 645.837L646.822 646.992L1446.11 647.373L1446.11 646.218Z" fill="#0EACEF"/>
<path d="M1446.1 676.993L646.808 676.611L646.807 677.766L1446.1 678.148L1446.1 676.993Z" fill="#0EACEF"/>
<path d="M1446.08 707.709L646.792 707.328L646.792 708.482L1446.08 708.864L1446.08 707.709Z" fill="#0EACEF"/>
<path d="M1446.07 738.426L646.779 738.045L646.779 739.199L1446.07 739.581L1446.07 738.426Z" fill="#0EACEF"/>
<path d="M1446.05 769.2L646.764 768.819L646.763 769.974L1446.05 770.355L1446.05 769.2Z" fill="#0EACEF"/>
<path d="M678.436 0.973836L677.281 0.973285L676.9 800.128L678.055 800.128L678.436 0.973836Z" fill="#0EACEF"/>
<path d="M709.215 0.988545L708.06 0.987994L707.679 800.142L708.834 800.143L709.215 0.988545Z" fill="#0EACEF"/>
<path d="M739.938 1.00325L738.783 1.0027L738.401 800.157L739.556 800.158L739.938 1.00325Z" fill="#0EACEF"/>
<path d="M770.648 1.01784L769.493 1.01729L769.112 800.172L770.267 800.172L770.648 1.01784Z" fill="#0EACEF"/>
<path d="M801.43 1.03261L800.275 1.03206L799.893 800.186L801.048 800.187L801.43 1.03261Z" fill="#0EACEF"/>
<path d="M832.152 1.0472L830.997 1.04665L830.615 800.201L831.77 800.201L832.152 1.0472Z" fill="#0EACEF"/>
<path d="M862.876 1.06185L861.721 1.0613L861.34 800.216L862.495 800.216L862.876 1.06185Z" fill="#0EACEF"/>
<path d="M893.657 1.07662L892.502 1.07607L892.121 800.23L893.276 800.231L893.657 1.07662Z" fill="#0EACEF"/>
<path d="M924.381 1.09127L923.226 1.09072L922.845 800.245L924 800.245L924.381 1.09127Z" fill="#0EACEF"/>
<path d="M955.105 1.10592L953.95 1.10537L953.569 800.26L954.724 800.26L955.105 1.10592Z" fill="#0EACEF"/>
<path d="M985.885 1.12063L984.73 1.12008L984.348 800.274L985.503 800.275L985.885 1.12063Z" fill="#0EACEF"/>
<path d="M1016.61 1.13522L1015.45 1.13467L1015.07 800.289L1016.23 800.289L1016.61 1.13522Z" fill="#0EACEF"/>
<path d="M1047.32 1.14987L1046.17 1.14931L1045.79 800.304L1046.94 800.304L1047.32 1.14987Z" fill="#0EACEF"/>
<path d="M1078.1 1.16463L1076.95 1.16408L1076.56 800.318L1077.72 800.319L1078.1 1.16463Z" fill="#0EACEF"/>
<path d="M1108.82 1.17928L1107.67 1.17873L1107.29 800.333L1108.44 800.334L1108.82 1.17928Z" fill="#0EACEF"/>
<path d="M1139.55 1.19387L1138.39 1.19332L1138.01 800.348L1139.17 800.348L1139.55 1.19387Z" fill="#0EACEF"/>
<path d="M1170.33 1.20864L1169.17 1.20809L1168.79 800.362L1169.95 800.363L1170.33 1.20864Z" fill="#0EACEF"/>
<path d="M1201.05 1.22329L1199.9 1.22274L1199.52 800.377L1200.67 800.378L1201.05 1.22329Z" fill="#0EACEF"/>
<path d="M1231.77 1.23794L1230.62 1.23739L1230.24 800.392L1231.39 800.392L1231.77 1.23794Z" fill="#0EACEF"/>
<path d="M1262.56 1.25265L1261.4 1.2521L1261.02 800.406L1262.17 800.407L1262.56 1.25265Z" fill="#0EACEF"/>
<path d="M1293.27 1.26724L1292.11 1.26669L1291.73 800.421L1292.89 800.422L1293.27 1.26724Z" fill="#0EACEF"/>
<path d="M1324.05 1.28189L1322.89 1.28134L1322.51 800.436L1323.67 800.436L1324.05 1.28189Z" fill="#0EACEF"/>
<path d="M1354.77 1.29666L1353.62 1.2961L1353.24 800.45L1354.39 800.451L1354.77 1.29666Z" fill="#0EACEF"/>
<path d="M1385.5 1.31131L1384.34 1.31075L1383.96 800.465L1385.12 800.466L1385.5 1.31131Z" fill="#0EACEF"/>
<path d="M1416.28 1.32595L1415.12 1.3254L1414.74 800.48L1415.9 800.48L1416.28 1.32595Z" fill="#0EACEF"/>
</g>
</g>
<defs>
<clipPath id="clip0_213_1196">
<rect width="1294" height="647" fill="white"/>
</clipPath>
</defs>
</svg>
