<svg width="924" height="525" viewBox="0 0 924 525" fill="none" xmlns="http://www.w3.org/2000/svg">
<g clip-path="url(#clip0_219_1306)">
<g opacity="0.4">
<path d="M-337.618 0.540527L462.825 0.92248L462.443 801.231L-338 800.85L-337.618 0.540527ZM461.67 2.07669L-336.464 1.69584L-336.844 799.695L461.289 800.076L461.67 2.07669Z" fill="#0EACEF"/>
<path d="M462.231 31.6387L-337.057 31.2573L-337.058 32.412L462.23 32.7934L462.231 31.6387Z" fill="#0EACEF"/>
<path d="M462.216 62.4135L-337.072 62.0321L-337.073 63.1869L462.215 63.5683L462.216 62.4135Z" fill="#0EACEF"/>
<path d="M462.203 93.1299L-337.086 92.7485L-337.086 93.9033L462.202 94.2847L462.203 93.1299Z" fill="#0EACEF"/>
<path d="M462.185 123.847L-337.103 123.466L-337.103 124.62L462.185 125.002L462.185 123.847Z" fill="#0EACEF"/>
<path d="M462.17 154.621L-337.118 154.24L-337.118 155.395L462.17 155.776L462.17 154.621Z" fill="#0EACEF"/>
<path d="M462.157 185.338L-337.131 184.956L-337.132 186.111L462.156 186.492L462.157 185.338Z" fill="#0EACEF"/>
<path d="M462.142 216.055L-337.146 215.673L-337.147 216.828L462.141 217.209L462.142 216.055Z" fill="#0EACEF"/>
<path d="M462.129 246.829L-337.16 246.448L-337.16 247.602L462.128 247.984L462.129 246.829Z" fill="#0EACEF"/>
<path d="M462.113 277.546L-337.175 277.165L-337.175 278.319L462.113 278.701L462.113 277.546Z" fill="#0EACEF"/>
<path d="M462.098 308.262L-337.19 307.881L-337.191 309.036L462.098 309.417L462.098 308.262Z" fill="#0EACEF"/>
<path d="M462.083 339.037L-337.205 338.656L-337.206 339.811L462.082 340.192L462.083 339.037Z" fill="#0EACEF"/>
<path d="M462.068 369.754L-337.22 369.372L-337.221 370.527L462.067 370.908L462.068 369.754Z" fill="#0EACEF"/>
<path d="M462.055 400.47L-337.234 400.089L-337.234 401.244L462.054 401.625L462.055 400.47Z" fill="#0EACEF"/>
<path d="M462.039 431.245L-337.249 430.864L-337.249 432.018L462.039 432.4L462.039 431.245Z" fill="#0EACEF"/>
<path d="M462.024 461.961L-337.264 461.58L-337.265 462.735L462.024 463.116L462.024 461.961Z" fill="#0EACEF"/>
<path d="M462.011 492.679L-337.277 492.297L-337.278 493.452L462.01 493.833L462.011 492.679Z" fill="#0EACEF"/>
<path d="M461.996 523.453L-337.292 523.071L-337.293 524.226L461.995 524.608L461.996 523.453Z" fill="#0EACEF"/>
<path d="M461.98 554.169L-337.308 553.788L-337.308 554.943L461.98 555.324L461.98 554.169Z" fill="#0EACEF"/>
<path d="M461.967 584.944L-337.321 584.563L-337.322 585.718L461.967 586.099L461.967 584.944Z" fill="#0EACEF"/>
<path d="M461.952 615.661L-337.336 615.279L-337.337 616.434L461.951 616.815L461.952 615.661Z" fill="#0EACEF"/>
<path d="M461.937 646.378L-337.351 645.996L-337.352 647.151L461.936 647.532L461.937 646.378Z" fill="#0EACEF"/>
<path d="M461.922 677.152L-337.367 676.77L-337.367 677.925L461.921 678.307L461.922 677.152Z" fill="#0EACEF"/>
<path d="M461.905 707.868L-337.384 707.487L-337.384 708.642L461.904 709.023L461.905 707.868Z" fill="#0EACEF"/>
<path d="M461.891 738.585L-337.397 738.204L-337.397 739.359L461.891 739.74L461.891 738.585Z" fill="#0EACEF"/>
<path d="M461.876 769.36L-337.412 768.978L-337.413 770.133L461.875 770.514L461.876 769.36Z" fill="#0EACEF"/>
<path d="M-305.74 1.13298L-306.895 1.13243L-307.276 800.287L-306.121 800.287L-305.74 1.13298Z" fill="#0EACEF"/>
<path d="M-274.961 1.14769L-276.116 1.14714L-276.497 800.301L-275.342 800.302L-274.961 1.14769Z" fill="#0EACEF"/>
<path d="M-244.237 1.16234L-245.391 1.16179L-245.773 800.316L-244.618 800.317L-244.237 1.16234Z" fill="#0EACEF"/>
<path d="M-213.524 1.17699L-214.679 1.17644L-215.06 800.331L-213.905 800.331L-213.524 1.17699Z" fill="#0EACEF"/>
<path d="M-182.743 1.19176L-183.898 1.19121L-184.279 800.345L-183.124 800.346L-182.743 1.19176Z" fill="#0EACEF"/>
<path d="M-152.02 1.20641L-153.175 1.20586L-153.557 800.36L-152.402 800.361L-152.02 1.20641Z" fill="#0EACEF"/>
<path d="M-121.296 1.22094L-122.451 1.22039L-122.833 800.375L-121.678 800.375L-121.296 1.22094Z" fill="#0EACEF"/>
<path d="M-90.5151 1.23571L-91.6701 1.23516L-92.0515 800.389L-90.8965 800.39L-90.5151 1.23571Z" fill="#0EACEF"/>
<path d="M-59.7948 1.25036L-60.9497 1.2498L-61.3311 800.404L-60.1762 800.405L-59.7948 1.25036Z" fill="#0EACEF"/>
<path d="M-29.0706 1.265L-30.2256 1.26445L-30.607 800.419L-29.452 800.419L-29.0706 1.265Z" fill="#0EACEF"/>
<path d="M1.70859 1.27977L0.553619 1.27922L0.172211 800.433L1.32718 800.434L1.70859 1.27977Z" fill="#0EACEF"/>
<path d="M32.4327 1.29436L31.2778 1.29381L30.8964 800.448L32.0513 800.449L32.4327 1.29436Z" fill="#0EACEF"/>
<path d="M63.1475 1.30901L61.9925 1.30846L61.6111 800.463L62.766 800.463L63.1475 1.30901Z" fill="#0EACEF"/>
<path d="M93.9267 1.32378L92.7716 1.32323L92.3903 800.477L93.5453 800.478L93.9267 1.32378Z" fill="#0EACEF"/>
<path d="M124.653 1.33837L123.498 1.33782L123.116 800.492L124.271 800.493L124.653 1.33837Z" fill="#0EACEF"/>
<path d="M155.373 1.35302L154.218 1.35247L153.837 800.507L154.992 800.507L155.373 1.35302Z" fill="#0EACEF"/>
<path d="M186.152 1.36773L184.997 1.36718L184.616 800.521L185.771 800.522L186.152 1.36773Z" fill="#0EACEF"/>
<path d="M216.876 1.38238L215.721 1.38183L215.34 800.536L216.495 800.537L216.876 1.38238Z" fill="#0EACEF"/>
<path d="M247.6 1.39703L246.446 1.39648L246.064 800.551L247.219 800.551L247.6 1.39703Z" fill="#0EACEF"/>
<path d="M278.38 1.41179L277.225 1.41124L276.843 800.566L277.998 800.566L278.38 1.41179Z" fill="#0EACEF"/>
<path d="M309.094 1.42644L307.939 1.42589L307.558 800.58L308.713 800.581L309.094 1.42644Z" fill="#0EACEF"/>
<path d="M339.874 1.44103L338.719 1.44048L338.337 800.595L339.492 800.595L339.874 1.44103Z" fill="#0EACEF"/>
<path d="M370.6 1.45574L369.445 1.45519L369.063 800.609L370.218 800.61L370.6 1.45574Z" fill="#0EACEF"/>
<path d="M401.322 1.47039L400.167 1.46984L399.786 800.624L400.94 800.625L401.322 1.47039Z" fill="#0EACEF"/>
<path d="M432.103 1.48504L430.948 1.48449L430.567 800.639L431.721 800.639L432.103 1.48504Z" fill="#0EACEF"/>
<path d="M461.557 0.921944L1262 1.3039L1261.62 801.613L461.175 801.231L461.557 0.921944ZM1260.84 2.45811L462.711 2.07726L462.33 800.077L1260.46 800.458L1260.84 2.45811Z" fill="#0EACEF"/>
<path d="M1261.41 32.0201L462.117 31.6387L462.116 32.7934L1261.4 33.1748L1261.41 32.0201Z" fill="#0EACEF"/>
<path d="M1261.39 62.7949L462.102 62.4135L462.101 63.5683L1261.39 63.9497L1261.39 62.7949Z" fill="#0EACEF"/>
<path d="M1261.38 93.5113L462.088 93.1299L462.088 94.2847L1261.38 94.6661L1261.38 93.5113Z" fill="#0EACEF"/>
<path d="M1261.36 124.228L462.073 123.847L462.073 125.002L1261.36 125.383L1261.36 124.228Z" fill="#0EACEF"/>
<path d="M1261.35 155.003L462.058 154.621L462.057 155.776L1261.35 156.157L1261.35 155.003Z" fill="#0EACEF"/>
<path d="M1261.33 185.719L462.045 185.338L462.044 186.492L1261.33 186.874L1261.33 185.719Z" fill="#0EACEF"/>
<path d="M1261.32 216.436L462.03 216.055L462.029 217.21L1261.32 217.591L1261.32 216.436Z" fill="#0EACEF"/>
<path d="M1261.3 247.21L462.016 246.829L462.016 247.984L1261.3 248.365L1261.3 247.21Z" fill="#0EACEF"/>
<path d="M1261.29 277.927L462.001 277.546L462.001 278.701L1261.29 279.082L1261.29 277.927Z" fill="#0EACEF"/>
<path d="M1261.27 308.644L461.984 308.262L461.984 309.417L1261.27 309.799L1261.27 308.644Z" fill="#0EACEF"/>
<path d="M1261.26 339.419L461.969 339.037L461.968 340.192L1261.26 340.573L1261.26 339.419Z" fill="#0EACEF"/>
<path d="M1261.24 370.135L461.954 369.754L461.953 370.908L1261.24 371.29L1261.24 370.135Z" fill="#0EACEF"/>
<path d="M1261.23 400.852L461.94 400.47L461.94 401.625L1261.23 402.006L1261.23 400.852Z" fill="#0EACEF"/>
<path d="M1261.21 431.626L461.925 431.245L461.925 432.4L1261.21 432.781L1261.21 431.626Z" fill="#0EACEF"/>
<path d="M1261.2 462.343L461.91 461.961L461.909 463.116L1261.2 463.498L1261.2 462.343Z" fill="#0EACEF"/>
<path d="M1261.18 493.06L461.897 492.679L461.896 493.833L1261.18 494.215L1261.18 493.06Z" fill="#0EACEF"/>
<path d="M1261.17 523.834L461.882 523.453L461.881 524.608L1261.17 524.989L1261.17 523.834Z" fill="#0EACEF"/>
<path d="M1261.15 554.551L461.865 554.169L461.864 555.324L1261.15 555.705L1261.15 554.551Z" fill="#0EACEF"/>
<path d="M1261.14 585.326L461.851 584.944L461.851 586.099L1261.14 586.48L1261.14 585.326Z" fill="#0EACEF"/>
<path d="M1261.12 616.042L461.836 615.661L461.835 616.815L1261.12 617.197L1261.12 616.042Z" fill="#0EACEF"/>
<path d="M1261.11 646.759L461.823 646.378L461.822 647.532L1261.11 647.914L1261.11 646.759Z" fill="#0EACEF"/>
<path d="M1261.1 677.533L461.808 677.152L461.807 678.307L1261.1 678.688L1261.1 677.533Z" fill="#0EACEF"/>
<path d="M1261.08 708.25L461.792 707.868L461.792 709.023L1261.08 709.404L1261.08 708.25Z" fill="#0EACEF"/>
<path d="M1261.07 738.967L461.779 738.585L461.779 739.74L1261.07 740.121L1261.07 738.967Z" fill="#0EACEF"/>
<path d="M1261.05 769.741L461.764 769.359L461.763 770.514L1261.05 770.896L1261.05 769.741Z" fill="#0EACEF"/>
<path d="M493.436 1.51436L492.281 1.51381L491.9 800.668L493.055 800.669L493.436 1.51436Z" fill="#0EACEF"/>
<path d="M524.215 1.52907L523.06 1.52852L522.679 800.683L523.834 800.683L524.215 1.52907Z" fill="#0EACEF"/>
<path d="M554.938 1.54378L553.783 1.54323L553.401 800.698L554.556 800.698L554.938 1.54378Z" fill="#0EACEF"/>
<path d="M585.648 1.55837L584.493 1.55782L584.112 800.712L585.267 800.713L585.648 1.55837Z" fill="#0EACEF"/>
<path d="M616.43 1.57314L615.275 1.57259L614.893 800.727L616.048 800.727L616.43 1.57314Z" fill="#0EACEF"/>
<path d="M647.152 1.58773L645.997 1.58718L645.615 800.741L646.77 800.742L647.152 1.58773Z" fill="#0EACEF"/>
<path d="M677.876 1.60238L676.721 1.60183L676.34 800.756L677.495 800.757L677.876 1.60238Z" fill="#0EACEF"/>
<path d="M708.657 1.61715L707.502 1.6166L707.121 800.771L708.276 800.771L708.657 1.61715Z" fill="#0EACEF"/>
<path d="M739.381 1.6318L738.226 1.63124L737.845 800.786L739 800.786L739.381 1.6318Z" fill="#0EACEF"/>
<path d="M770.105 1.64645L768.95 1.64589L768.569 800.8L769.724 800.801L770.105 1.64645Z" fill="#0EACEF"/>
<path d="M800.885 1.66115L799.73 1.6606L799.348 800.815L800.503 800.815L800.885 1.66115Z" fill="#0EACEF"/>
<path d="M831.607 1.67574L830.452 1.67519L830.07 800.829L831.225 800.83L831.607 1.67574Z" fill="#0EACEF"/>
<path d="M862.321 1.69039L861.167 1.68984L860.785 800.844L861.94 800.845L862.321 1.69039Z" fill="#0EACEF"/>
<path d="M893.101 1.70516L891.946 1.70461L891.564 800.859L892.719 800.859L893.101 1.70516Z" fill="#0EACEF"/>
<path d="M923.825 1.71981L922.67 1.71926L922.288 800.874L923.443 800.874L923.825 1.71981Z" fill="#0EACEF"/>
<path d="M954.549 1.7344L953.394 1.73385L953.013 800.888L954.168 800.889L954.549 1.7344Z" fill="#0EACEF"/>
<path d="M985.328 1.74917L984.173 1.74862L983.792 800.903L984.947 800.903L985.328 1.74917Z" fill="#0EACEF"/>
<path d="M1016.05 1.76382L1014.9 1.76327L1014.52 800.918L1015.67 800.918L1016.05 1.76382Z" fill="#0EACEF"/>
<path d="M1046.77 1.77847L1045.62 1.77792L1045.24 800.932L1046.39 800.933L1046.77 1.77847Z" fill="#0EACEF"/>
<path d="M1077.56 1.79318L1076.4 1.79262L1076.02 800.947L1077.17 800.947L1077.56 1.79318Z" fill="#0EACEF"/>
<path d="M1108.27 1.80777L1107.11 1.80721L1106.73 800.961L1107.89 800.962L1108.27 1.80777Z" fill="#0EACEF"/>
<path d="M1139.05 1.82242L1137.89 1.82186L1137.51 800.976L1138.67 800.977L1139.05 1.82242Z" fill="#0EACEF"/>
<path d="M1169.77 1.83718L1168.62 1.83663L1168.24 800.991L1169.39 800.991L1169.77 1.83718Z" fill="#0EACEF"/>
<path d="M1200.5 1.85183L1199.34 1.85128L1198.96 801.006L1200.12 801.006L1200.5 1.85183Z" fill="#0EACEF"/>
<path d="M1231.28 1.86648L1230.12 1.86593L1229.74 801.02L1230.9 801.021L1231.28 1.86648Z" fill="#0EACEF"/>
</g>
</g>
<defs>
<clipPath id="clip0_219_1306">
<rect width="924" height="524" fill="white" transform="translate(0 0.540527)"/>
</clipPath>
</defs>
</svg>
