<svg width="646" height="431" viewBox="0 0 646 431" fill="none" xmlns="http://www.w3.org/2000/svg">
<g clip-path="url(#clip0_249_1370)">
<g opacity="0.4">
<path d="M-31.118 0L769.325 0.381442L768.943 799.619L-31.5 799.238L-31.118 0ZM768.17 1.53411L-29.9636 1.15377L-30.3445 798.085L767.789 798.465L768.17 1.53411Z" fill="#0EACEF"/>
<path d="M768.731 31.0565L-30.5571 30.6756L-30.5577 31.8289L768.73 32.2097L768.731 31.0565Z" fill="#0EACEF"/>
<path d="M768.716 61.7901L-30.5723 61.4093L-30.5729 62.5625L768.715 62.9434L768.716 61.7901Z" fill="#0EACEF"/>
<path d="M768.703 92.4654L-30.5856 92.0845L-30.5862 93.2378L768.702 93.6187L768.703 92.4654Z" fill="#0EACEF"/>
<path d="M768.685 123.141L-30.6027 122.761L-30.6032 123.914L768.685 124.295L768.685 123.141Z" fill="#0EACEF"/>
<path d="M768.67 153.874L-30.6179 153.494L-30.6184 154.647L768.67 155.028L768.67 153.874Z" fill="#0EACEF"/>
<path d="M768.657 184.55L-30.6312 184.169L-30.6317 185.322L768.656 185.703L768.657 184.55Z" fill="#0EACEF"/>
<path d="M768.642 215.226L-30.6463 214.845L-30.6469 215.998L768.641 216.379L768.642 215.226Z" fill="#0EACEF"/>
<path d="M768.629 245.959L-30.6596 245.578L-30.6602 246.731L768.628 247.112L768.629 245.959Z" fill="#0EACEF"/>
<path d="M768.613 276.635L-30.6748 276.254L-30.6754 277.407L768.613 277.788L768.613 276.635Z" fill="#0EACEF"/>
<path d="M768.598 307.31L-30.69 306.929L-30.6905 308.082L768.598 308.463L768.598 307.31Z" fill="#0EACEF"/>
<path d="M768.583 338.044L-30.7052 337.663L-30.7057 338.816L768.582 339.197L768.583 338.044Z" fill="#0EACEF"/>
<path d="M768.568 368.719L-30.7204 368.338L-30.7209 369.491L768.567 369.872L768.568 368.719Z" fill="#0EACEF"/>
<path d="M768.555 399.394L-30.7337 399.013L-30.7342 400.167L768.554 400.547L768.555 399.394Z" fill="#0EACEF"/>
<path d="M768.539 430.128L-30.7488 429.747L-30.7494 430.9L768.539 431.281L768.539 430.128Z" fill="#0EACEF"/>
<path d="M768.524 460.803L-30.764 460.422L-30.7646 461.576L768.524 461.956L768.524 460.803Z" fill="#0EACEF"/>
<path d="M768.511 491.479L-30.7773 491.098L-30.7779 492.251L768.51 492.632L768.511 491.479Z" fill="#0EACEF"/>
<path d="M768.496 522.212L-30.7925 521.831L-30.793 522.985L768.495 523.366L768.496 522.212Z" fill="#0EACEF"/>
<path d="M768.48 552.888L-30.8077 552.507L-30.8082 553.66L768.48 554.041L768.48 552.888Z" fill="#0EACEF"/>
<path d="M768.467 583.621L-30.821 583.24L-30.8215 584.394L768.467 584.775L768.467 583.621Z" fill="#0EACEF"/>
<path d="M768.452 614.297L-30.8362 613.916L-30.8367 615.069L768.451 615.45L768.452 614.297Z" fill="#0EACEF"/>
<path d="M768.437 644.972L-30.8513 644.592L-30.8519 645.745L768.436 646.126L768.437 644.972Z" fill="#0EACEF"/>
<path d="M768.422 675.706L-30.8665 675.325L-30.8671 676.478L768.421 676.859L768.422 675.706Z" fill="#0EACEF"/>
<path d="M768.405 706.381L-30.8836 706L-30.8842 707.153L768.404 707.534L768.405 706.381Z" fill="#0EACEF"/>
<path d="M768.391 737.057L-30.8969 736.676L-30.8974 737.829L768.391 738.21L768.391 737.057Z" fill="#0EACEF"/>
<path d="M768.376 767.79L-30.9121 767.409L-30.9126 768.562L768.375 768.943L768.376 767.79Z" fill="#0EACEF"/>
<path d="M0.760147 0.591662L-0.39481 0.591112L-0.776222 798.676L0.378735 798.676L0.760147 0.591662Z" fill="#0EACEF"/>
<path d="M31.5393 0.606351L30.3844 0.605801L30.003 798.69L31.1579 798.691L31.5393 0.606351Z" fill="#0EACEF"/>
<path d="M62.2635 0.620981L61.1085 0.620431L60.7271 798.705L61.8821 798.705L62.2635 0.620981Z" fill="#0EACEF"/>
<path d="M92.9762 0.635611L91.8213 0.63506L91.4399 798.719L92.5948 798.72L92.9762 0.635611Z" fill="#0EACEF"/>
<path d="M123.757 0.650359L122.602 0.649809L122.221 798.734L123.376 798.735L123.757 0.650359Z" fill="#0EACEF"/>
<path d="M154.48 0.664989L153.325 0.664438L152.943 798.749L154.098 798.749L154.48 0.664989Z" fill="#0EACEF"/>
<path d="M185.204 0.6795L184.049 0.67895L183.667 798.763L184.822 798.764L185.204 0.6795Z" fill="#0EACEF"/>
<path d="M215.985 0.694248L214.83 0.693698L214.449 798.778L215.603 798.779L215.985 0.694248Z" fill="#0EACEF"/>
<path d="M246.705 0.708878L245.55 0.708328L245.169 798.793L246.324 798.793L246.705 0.708878Z" fill="#0EACEF"/>
<path d="M277.429 0.723508L276.274 0.722957L275.893 798.807L277.048 798.808L277.429 0.723508Z" fill="#0EACEF"/>
<path d="M308.209 0.738256L307.054 0.737705L306.672 798.822L307.827 798.823L308.209 0.738256Z" fill="#0EACEF"/>
<path d="M338.933 0.752826L337.778 0.752276L337.396 798.837L338.551 798.837L338.933 0.752826Z" fill="#0EACEF"/>
<path d="M369.647 0.767456L368.492 0.766906L368.111 798.851L369.266 798.852L369.647 0.767456Z" fill="#0EACEF"/>
<path d="M400.427 0.782204L399.272 0.781654L398.89 798.866L400.045 798.867L400.427 0.782204Z" fill="#0EACEF"/>
<path d="M431.153 0.796775L429.998 0.796224L429.616 798.881L430.771 798.881L431.153 0.796775Z" fill="#0EACEF"/>
<path d="M461.873 0.811404L460.718 0.810854L460.337 798.895L461.492 798.896L461.873 0.811404Z" fill="#0EACEF"/>
<path d="M492.652 0.826093L491.497 0.825543L491.116 798.91L492.271 798.911L492.652 0.826093Z" fill="#0EACEF"/>
<path d="M523.376 0.840723L522.221 0.840173L521.84 798.925L522.995 798.925L523.376 0.840723Z" fill="#0EACEF"/>
<path d="M554.1 0.855353L552.946 0.854802L552.564 798.939L553.719 798.94L554.1 0.855353Z" fill="#0EACEF"/>
<path d="M584.88 0.870101L583.725 0.869551L583.343 798.954L584.498 798.955L584.88 0.870101Z" fill="#0EACEF"/>
<path d="M615.594 0.884731L614.439 0.88418L614.058 798.969L615.213 798.969L615.594 0.884731Z" fill="#0EACEF"/>
<path d="M646.374 0.899301L645.219 0.898751L644.837 798.983L645.992 798.984L646.374 0.899301Z" fill="#0EACEF"/>
<path d="M677.1 0.91399L675.945 0.91344L675.563 798.998L676.718 798.998L677.1 0.91399Z" fill="#0EACEF"/>
<path d="M707.822 0.92862L706.667 0.92807L706.286 799.013L707.44 799.013L707.822 0.92862Z" fill="#0EACEF"/>
<path d="M738.603 0.94325L737.448 0.942699L737.067 799.027L738.221 799.028L738.603 0.94325Z" fill="#0EACEF"/>
<path d="M768.057 0.380906L1568.5 0.762348L1568.12 800L767.675 799.619L768.057 0.380906ZM1567.34 1.91501L769.211 1.53467L768.83 798.466L1566.96 798.846L1567.34 1.91501Z" fill="#0EACEF"/>
<path d="M1567.91 31.4374L768.617 31.0565L768.616 32.2097L1567.9 32.5906L1567.91 31.4374Z" fill="#0EACEF"/>
<path d="M1567.89 62.171L768.602 61.7901L768.601 62.9434L1567.89 63.3242L1567.89 62.171Z" fill="#0EACEF"/>
<path d="M1567.88 92.8464L768.588 92.4655L768.588 93.6187L1567.88 93.9996L1567.88 92.8464Z" fill="#0EACEF"/>
<path d="M1567.86 123.522L768.573 123.141L768.573 124.295L1567.86 124.675L1567.86 123.522Z" fill="#0EACEF"/>
<path d="M1567.85 154.255L768.558 153.874L768.557 155.028L1567.85 155.409L1567.85 154.255Z" fill="#0EACEF"/>
<path d="M1567.83 184.931L768.545 184.55L768.544 185.703L1567.83 186.084L1567.83 184.931Z" fill="#0EACEF"/>
<path d="M1567.82 215.607L768.53 215.226L768.529 216.379L1567.82 216.76L1567.82 215.607Z" fill="#0EACEF"/>
<path d="M1567.8 246.34L768.516 245.959L768.516 247.112L1567.8 247.493L1567.8 246.34Z" fill="#0EACEF"/>
<path d="M1567.79 277.016L768.501 276.635L768.501 277.788L1567.79 278.169L1567.79 277.016Z" fill="#0EACEF"/>
<path d="M1567.77 307.691L768.484 307.31L768.484 308.463L1567.77 308.844L1567.77 307.691Z" fill="#0EACEF"/>
<path d="M1567.76 338.425L768.469 338.044L768.468 339.197L1567.76 339.578L1567.76 338.425Z" fill="#0EACEF"/>
<path d="M1567.74 369.1L768.454 368.719L768.453 369.872L1567.74 370.253L1567.74 369.1Z" fill="#0EACEF"/>
<path d="M1567.73 399.775L768.44 399.394L768.44 400.547L1567.73 400.928L1567.73 399.775Z" fill="#0EACEF"/>
<path d="M1567.71 430.509L768.425 430.128L768.425 431.281L1567.71 431.662L1567.71 430.509Z" fill="#0EACEF"/>
<path d="M1567.7 461.184L768.41 460.803L768.409 461.957L1567.7 462.337L1567.7 461.184Z" fill="#0EACEF"/>
<path d="M1567.68 491.86L768.397 491.479L768.396 492.632L1567.68 493.013L1567.68 491.86Z" fill="#0EACEF"/>
<path d="M1567.67 522.593L768.382 522.212L768.381 523.365L1567.67 523.746L1567.67 522.593Z" fill="#0EACEF"/>
<path d="M1567.65 553.268L768.365 552.888L768.364 554.041L1567.65 554.422L1567.65 553.268Z" fill="#0EACEF"/>
<path d="M1567.64 584.002L768.351 583.621L768.351 584.775L1567.64 585.155L1567.64 584.002Z" fill="#0EACEF"/>
<path d="M1567.62 614.677L768.336 614.297L768.335 615.45L1567.62 615.831L1567.62 614.677Z" fill="#0EACEF"/>
<path d="M1567.61 645.353L768.323 644.972L768.322 646.126L1567.61 646.507L1567.61 645.353Z" fill="#0EACEF"/>
<path d="M1567.6 676.086L768.308 675.706L768.307 676.859L1567.6 677.24L1567.6 676.086Z" fill="#0EACEF"/>
<path d="M1567.58 706.762L768.292 706.381L768.292 707.534L1567.58 707.915L1567.58 706.762Z" fill="#0EACEF"/>
<path d="M1567.57 737.438L768.279 737.057L768.279 738.21L1567.57 738.591L1567.57 737.438Z" fill="#0EACEF"/>
<path d="M1567.55 768.171L768.264 767.79L768.263 768.943L1567.55 769.324L1567.55 768.171Z" fill="#0EACEF"/>
<path d="M799.936 0.972533L798.781 0.971982L798.4 799.056L799.555 799.057L799.936 0.972533Z" fill="#0EACEF"/>
<path d="M830.715 0.987222L829.56 0.986671L829.179 799.071L830.334 799.072L830.715 0.987222Z" fill="#0EACEF"/>
<path d="M861.438 1.00191L860.283 1.00136L859.901 799.086L861.056 799.086L861.438 1.00191Z" fill="#0EACEF"/>
<path d="M892.148 1.01648L890.993 1.01593L890.612 799.1L891.767 799.101L892.148 1.01648Z" fill="#0EACEF"/>
<path d="M922.93 1.03123L921.775 1.03068L921.393 799.115L922.548 799.116L922.93 1.03123Z" fill="#0EACEF"/>
<path d="M953.652 1.0458L952.497 1.04525L952.115 799.13L953.27 799.13L953.652 1.0458Z" fill="#0EACEF"/>
<path d="M984.376 1.06043L983.221 1.05988L982.84 799.144L983.995 799.145L984.376 1.06043Z" fill="#0EACEF"/>
<path d="M1015.16 1.07518L1014 1.07463L1013.62 799.159L1014.78 799.16L1015.16 1.07518Z" fill="#0EACEF"/>
<path d="M1045.88 1.08981L1044.73 1.08926L1044.34 799.174L1045.5 799.174L1045.88 1.08981Z" fill="#0EACEF"/>
<path d="M1076.61 1.10444L1075.45 1.10389L1075.07 799.188L1076.22 799.189L1076.61 1.10444Z" fill="#0EACEF"/>
<path d="M1107.38 1.11913L1106.23 1.11858L1105.85 799.203L1107 799.204L1107.38 1.11913Z" fill="#0EACEF"/>
<path d="M1138.11 1.1337L1136.95 1.13315L1136.57 799.218L1137.73 799.218L1138.11 1.1337Z" fill="#0EACEF"/>
<path d="M1168.82 1.14833L1167.67 1.14778L1167.29 799.232L1168.44 799.233L1168.82 1.14833Z" fill="#0EACEF"/>
<path d="M1199.6 1.16307L1198.45 1.16252L1198.06 799.247L1199.22 799.247L1199.6 1.16307Z" fill="#0EACEF"/>
<path d="M1230.32 1.1777L1229.17 1.17715L1228.79 799.262L1229.94 799.262L1230.32 1.1777Z" fill="#0EACEF"/>
<path d="M1261.05 1.19227L1259.89 1.19172L1259.51 799.276L1260.67 799.277L1261.05 1.19227Z" fill="#0EACEF"/>
<path d="M1291.83 1.20702L1290.67 1.20647L1290.29 799.291L1291.45 799.292L1291.83 1.20702Z" fill="#0EACEF"/>
<path d="M1322.55 1.22165L1321.4 1.2211L1321.02 799.306L1322.17 799.306L1322.55 1.22165Z" fill="#0EACEF"/>
<path d="M1353.27 1.23628L1352.12 1.23573L1351.74 799.32L1352.89 799.321L1353.27 1.23628Z" fill="#0EACEF"/>
<path d="M1384.06 1.25097L1382.9 1.25042L1382.52 799.335L1383.67 799.335L1384.06 1.25097Z" fill="#0EACEF"/>
<path d="M1414.77 1.26554L1413.61 1.26499L1413.23 799.349L1414.39 799.35L1414.77 1.26554Z" fill="#0EACEF"/>
<path d="M1445.55 1.28017L1444.39 1.27962L1444.01 799.364L1445.17 799.365L1445.55 1.28017Z" fill="#0EACEF"/>
<path d="M1476.27 1.29492L1475.12 1.29437L1474.74 799.379L1475.89 799.379L1476.27 1.29492Z" fill="#0EACEF"/>
<path d="M1507 1.30955L1505.84 1.309L1505.46 799.393L1506.62 799.394L1507 1.30955Z" fill="#0EACEF"/>
<path d="M1537.78 1.32418L1536.62 1.32363L1536.24 799.408L1537.4 799.409L1537.78 1.32418Z" fill="#0EACEF"/>
</g>
</g>
<defs>
<clipPath id="clip0_249_1370">
<rect width="646" height="431" fill="white"/>
</clipPath>
</defs>
</svg>
