<svg width="566" height="695" viewBox="0 0 566 695" fill="none" xmlns="http://www.w3.org/2000/svg">
<path fill-rule="evenodd" clip-rule="evenodd" d="M232.617 626.133C291.175 582.554 353.56 520.193 410.752 444.662C550.065 260.676 605.804 68.2166 535.249 14.7927C464.694 -38.6311 294.562 67.2107 155.249 251.197C15.9357 435.183 -39.8035 627.642 30.7517 681.066C63.259 705.68 116.904 696.486 178.934 661.417C184.737 669.676 194.249 675.06 205 675.06C222.673 675.06 237 660.51 237 642.56C237 636.567 235.403 630.953 232.617 626.133ZM31.3554 680.269C48.6913 693.396 72.2318 696.81 100.116 691.557C123.602 687.131 150.09 676.568 178.37 660.587C174.978 655.429 173 649.229 173 642.56C173 624.611 187.327 610.06 205 610.06C216.417 610.06 226.437 616.133 232.101 625.271C290.543 581.763 352.833 519.497 409.954 444.058C479.556 352.137 528.253 258.134 550.74 180.488C561.985 141.662 566.661 106.978 564.156 78.7132C561.652 50.4491 551.981 28.7166 534.645 15.59C517.309 2.46334 493.769 -0.951451 465.884 4.3024C438 9.55618 405.883 23.4627 371.561 44.8152C302.923 87.5163 225.648 159.88 156.046 251.801C86.4441 343.722 37.7478 437.725 15.2602 515.371C4.01538 554.197 -0.660661 588.881 1.84409 617.146C4.34885 645.41 14.0194 667.142 31.3554 680.269ZM231.296 625.869C225.814 616.972 216.081 611.06 205 611.06C187.894 611.06 174 625.149 174 642.56C174 649.053 175.932 655.083 179.242 660.093C184.254 657.245 189.322 654.227 194.439 651.044C206.488 643.548 218.803 635.138 231.296 625.869ZM179.808 660.922C196.616 651.365 214.034 639.917 231.809 626.733C234.474 631.382 236 636.789 236 642.56C236 659.972 222.107 674.06 205 674.06C194.628 674.06 185.437 668.881 179.808 660.922Z" fill="#D6EF0E"/>
</svg>
