<svg width="566" height="695" viewBox="0 0 566 695" fill="none" xmlns="http://www.w3.org/2000/svg">
<path d="M31.0533 680.607C48.5407 693.848 72.2422 697.257 100.209 691.987C128.175 686.718 160.35 672.779 194.703 651.408C263.406 608.667 340.724 536.257 410.353 444.3C479.982 352.343 528.712 258.286 551.22 180.567C562.475 141.706 567.166 106.956 564.654 78.6087C562.142 50.2614 552.434 28.3723 534.947 15.131C517.459 1.88972 493.758 -1.51858 465.792 3.75068C437.825 9.01995 405.65 22.9589 371.297 44.3303C302.594 87.0712 225.276 159.481 155.647 251.438C86.018 343.396 37.2883 437.453 14.7798 515.171C3.52498 554.032 -1.16626 588.782 1.34588 617.129C3.85801 645.477 13.566 667.366 31.0533 680.607Z" stroke="#D6EF0E"/>
</svg>
