<svg width="472" height="378" viewBox="0 0 472 378" fill="none" xmlns="http://www.w3.org/2000/svg">
<path fill-rule="evenodd" clip-rule="evenodd" d="M457.577 125.228C466.907 115.257 472 104.482 472 93.2389C472 42.0451 366.398 0.544434 236.132 0.544434C105.865 0.544434 0.263672 42.0451 0.263672 93.2389C0.263672 104.482 5.35691 115.257 14.6861 125.228C5.35691 135.199 0.263672 145.974 0.263672 157.217C0.263672 168.46 5.35699 179.236 14.6863 189.207C5.35699 199.178 0.263672 209.953 0.263672 221.196C0.263672 232.439 5.35691 243.215 14.6861 253.186C5.35691 263.157 0.263672 273.932 0.263672 285.175C0.263672 336.369 105.865 377.869 236.132 377.869C366.398 377.869 472 336.369 472 285.175C472 273.932 466.907 263.157 457.577 253.186C466.907 243.215 472 232.439 472 221.196C472 209.953 466.907 199.178 457.577 189.207C466.907 179.236 472 168.46 472 157.217C472 145.974 466.907 135.199 457.577 125.228ZM456.2 125.228C455.117 126.357 453.978 127.477 452.784 128.587C441.52 139.053 425.405 148.568 405.487 156.678C362.617 139.301 302.583 128.502 236.132 128.502C169.68 128.502 109.647 139.301 66.7761 156.678C46.8589 148.568 30.7439 139.053 19.48 128.587C18.2855 127.477 17.1462 126.357 16.0633 125.228C17.1462 124.099 18.2855 122.979 19.48 121.869C31.2926 110.894 48.4403 100.963 69.7136 92.6032C112.254 75.8851 171.091 65.5229 236.132 65.5229C301.172 65.5229 360.009 75.8851 402.55 92.6032C423.823 100.963 440.971 110.894 452.784 121.869C453.978 122.979 455.117 124.099 456.2 125.228ZM456.888 124.501C423.239 89.4517 337.093 64.5229 236.132 64.5229C135.17 64.5229 49.0248 89.4517 15.3752 124.501C6.19227 114.672 1.26367 104.141 1.26367 93.2389C1.26367 80.8107 7.66879 68.8649 19.48 57.8906C31.2926 46.9151 48.4403 36.9849 69.7136 28.6247C112.254 11.9066 171.091 1.54443 236.132 1.54443C301.172 1.54443 360.009 11.9066 402.55 28.6247C423.823 36.9849 440.971 46.9151 452.784 57.8906C464.595 68.8649 471 80.8107 471 93.2389C471 104.141 466.071 114.672 456.888 124.501ZM456.888 125.955C445.615 137.698 428.449 148.304 406.808 157.218C428.449 166.131 445.615 176.738 456.888 188.48C466.071 178.65 471 168.119 471 157.217C471 146.315 466.071 135.785 456.888 125.955ZM404.151 157.218C403.62 157.005 403.086 156.793 402.55 156.582C360.009 139.864 301.172 129.502 236.132 129.502C171.091 129.502 112.254 139.864 69.7136 156.582C69.1772 156.793 68.6434 157.005 68.1123 157.218C68.6434 157.43 69.1772 157.642 69.7136 157.853C112.254 174.571 171.091 184.933 236.132 184.933C301.172 184.933 360.009 174.571 402.55 157.853C403.086 157.642 403.62 157.43 404.151 157.218ZM66.7761 157.757C109.647 175.134 169.68 185.933 236.132 185.933C302.583 185.933 362.617 175.134 405.487 157.757C425.405 165.867 441.52 175.382 452.784 185.848C453.978 186.958 455.117 188.078 456.2 189.207C455.117 190.336 453.978 191.456 452.784 192.566C441.52 203.031 425.405 212.547 405.487 220.656C362.617 203.28 302.583 192.48 236.132 192.48C169.68 192.48 109.647 203.28 66.7761 220.656C46.8589 212.547 30.7439 203.031 19.48 192.566C18.2856 191.456 17.1464 190.336 16.0636 189.207C17.1464 188.078 18.2856 186.958 19.48 185.848C30.7439 175.382 46.8589 165.867 66.7761 157.757ZM65.4553 157.218C43.8143 148.304 26.6486 137.698 15.3752 125.955C6.19227 135.785 1.26367 146.315 1.26367 157.217C1.26367 168.119 6.19236 178.65 15.3754 188.48C26.6488 176.738 43.8144 166.131 65.4553 157.218ZM406.808 221.196C428.449 212.283 445.615 201.676 456.888 189.934C466.071 199.763 471 210.294 471 221.196C471 232.098 466.071 242.629 456.888 252.459C445.615 240.716 428.449 230.11 406.808 221.196ZM402.55 220.561C403.086 220.772 403.62 220.983 404.151 221.196C403.62 221.409 403.086 221.621 402.55 221.832C360.009 238.55 301.172 248.912 236.132 248.912C171.091 248.912 112.254 238.55 69.7136 221.832C69.1772 221.621 68.6434 221.409 68.1123 221.196C68.6434 220.983 69.1772 220.772 69.7136 220.561C112.254 203.843 171.091 193.48 236.132 193.48C301.172 193.48 360.009 203.843 402.55 220.561ZM236.132 249.912C169.68 249.912 109.647 239.112 66.7761 221.736C46.8589 229.846 30.7439 239.361 19.48 249.827C18.2855 250.937 17.1462 252.056 16.0633 253.186C17.1462 254.315 18.2855 255.435 19.48 256.545C31.2926 267.52 48.4403 277.45 69.7136 285.811C112.254 302.529 171.091 312.891 236.132 312.891C301.172 312.891 360.009 302.529 402.55 285.811C423.823 277.45 440.971 267.52 452.784 256.545C453.978 255.435 455.117 254.315 456.2 253.186C455.117 252.056 453.978 250.937 452.784 249.827C441.52 239.361 425.405 229.846 405.487 221.736C362.617 239.112 302.583 249.912 236.132 249.912ZM15.3754 189.934C26.6488 201.676 43.8144 212.283 65.4552 221.196C43.8143 230.11 26.6486 240.716 15.3752 252.459C6.19227 242.629 1.26367 232.098 1.26367 221.196C1.26367 210.294 6.19235 199.763 15.3754 189.934ZM456.888 253.913C423.239 288.962 337.093 313.891 236.132 313.891C135.17 313.891 49.0248 288.962 15.3752 253.913C6.19227 263.742 1.26367 274.273 1.26367 285.175C1.26367 297.603 7.66879 309.549 19.48 320.523C31.2926 331.499 48.4403 341.429 69.7136 349.789C112.254 366.507 171.091 376.869 236.132 376.869C301.172 376.869 360.009 366.507 402.55 349.789C423.823 341.429 440.971 331.499 452.784 320.523C464.595 309.549 471 297.603 471 285.175C471 274.273 466.071 263.742 456.888 253.913Z" fill="#D6EF0E"/>
</svg>
